# xmcd
#
# Track frame offsets: 
#        150
#        18217
#        34177
#        57650
#        72270
#        86720
#        107880
#        123487
#        139135
#        156835
#        170245
#
# Disc length: 2435 seconds
#
# Revision: 5
# Processed by: cddbd v1.5.2PL0 Copyright (c) Steve Scherf et al.
# Submitted via: ExactAudioCopy v0.99pb2
#
DISCID=9f09810b
DTITLE=Muddy Waters - Folk Singer [MFSL GOLD UDCD 593]
DYEAR=1964
DGENRE=Blues
TTITLE0=My Home Is In The Delta
TTITLE1=Long Distance
TTITLE2=My Captain
TTITLE3=Good Morning School Girl
TTITLE4=You Gonna Need My Help
TTITLE5=Cold Weather Blues
TTITLE6=Big Leg Woman
TTITLE7=Country Boy
TTITLE8=Feel Like Going Home
TTITLE9=You Can't Lose What You Ain't Never Had
TTITLE10=The Same Thing
EXTD=YEAR: 1964
EXTT0=
EXTT1=
EXTT2=
EXTT3=
EXTT4=
EXTT5=
EXTT6=
EXTT7=
EXTT8=
EXTT9=
EXTT10=
PLAYORDER=
